HIERARCHY
ROOT ROOT
{
	OFFSET 0.000000 56.020000 -5.659234
	CHANNELS 6 Xposition Yposition Zposition Xrotation Yrotation Zrotation 
	JOINT C_spine0001_bind_JNT
	{
		OFFSET 0.000000 1.618999 0.000000
		CHANNELS 3 Xrotation Yrotation Zrotation
		JOINT C_spine0002_bind_JNT
		{
			OFFSET 0.000000 4.942001 0.000001
			CHANNELS 3 Xrotation Yrotation Zrotation
			JOINT C_spine0003_bind_JNT
			{
				OFFSET 0.000000 4.942001 -0.000000
				CHANNELS 3 Xrotation Yrotation Zrotation
				JOINT C_neck0001_bind_JNT
				{
					OFFSET 0.000000 17.026009 -0.000000
					CHANNELS 3 Xrotation Yrotation Zrotation
					JOINT C_neck0002_bind_JNT
					{
						OFFSET 0.000000 3.249985 0.000000
						CHANNELS 3 Xrotation Yrotation Zrotation
						JOINT C_head_bind_JNT
						{
							OFFSET 0.000000 5.278008 0.000000
							CHANNELS 3 Xrotation Yrotation Zrotation
							End Site
							{
								OFFSET 0.000000 0.000000 0.000000
							}
						}
					}
				}
				JOINT L_clavicle_bind_JNT
				{
					OFFSET 4.590000 12.067001 0.834000
					CHANNELS 3 Xrotation Yrotation Zrotation
					JOINT L_armUpper0001_bind_JNT
					{
						OFFSET 7.812635 0.512001 -3.452945
						CHANNELS 3 Xrotation Yrotation Zrotation
						JOINT L_armLower0001_bind_JNT
						{
							OFFSET 15.265892 -6.552116 -0.058157
							CHANNELS 3 Xrotation Yrotation Zrotation
							JOINT L_hand0001_bind_JNT
							{
								OFFSET 14.747667 -6.369995 5.049225
								CHANNELS 3 Xrotation Yrotation Zrotation
								End Site
								{
									OFFSET 0.000000 0.000000 0.000000
								}
							}
						}
					}
				}
				JOINT R_clavicle_bind_JNT
				{
					OFFSET -4.590000 12.067001 0.834000
					CHANNELS 3 Xrotation Yrotation Zrotation
					JOINT R_armUpper0001_bind_JNT
					{
						OFFSET -7.812635 0.512001 -3.452945
						CHANNELS 3 Xrotation Yrotation Zrotation
						JOINT R_armLower0001_bind_JNT
						{
							OFFSET -15.265890 -6.552124 -0.058160
							CHANNELS 3 Xrotation Yrotation Zrotation
							JOINT R_hand0001_bind_JNT
							{
								OFFSET -14.746784 -6.369629 5.048937
								CHANNELS 3 Xrotation Yrotation Zrotation
								End Site
								{
									OFFSET 0.000000 0.000000 0.000000
								}
							}
						}
					}
				}
			}
		}
	}
	JOINT C_pelvis0001_bind_JNT
	{
		OFFSET -0.000000 0.000000 0.000000
		CHANNELS 3 Xrotation Yrotation Zrotation
		JOINT L_legUpper0001_bind_JNT
		{
			OFFSET 6.599999 -6.027000 0.539000
			CHANNELS 3 Xrotation Yrotation Zrotation
			JOINT L_legLower0001_bind_JNT
			{
				OFFSET -0.140713 -19.187443 0.040261
				CHANNELS 3 Xrotation Yrotation Zrotation
				JOINT L_foot0001_bind_JNT
				{
					OFFSET -0.132215 -18.028637 -1.138370
					CHANNELS 3 Xrotation Yrotation Zrotation
					JOINT L_foot0002_bind_JNT
					{
						OFFSET 0.007014 -4.693133 9.886524
						CHANNELS 3 Xrotation Yrotation Zrotation
						End Site
						{
							OFFSET 0.000000 0.000000 0.000000
						}
					}
				}
			}
		}
		JOINT R_legUpper0001_bind_JNT
		{
			OFFSET -6.599999 -6.027000 0.539000
			CHANNELS 3 Xrotation Yrotation Zrotation
			JOINT R_legLower0001_bind_JNT
			{
				OFFSET 0.140710 -19.187164 0.040550
				CHANNELS 3 Xrotation Yrotation Zrotation
				JOINT R_foot0001_bind_JNT
				{
					OFFSET 0.132215 -18.028633 -1.138362
					CHANNELS 3 Xrotation Yrotation Zrotation
					JOINT R_foot0002_bind_JNT
					{
						OFFSET -0.007014 -4.693128 9.886505
						CHANNELS 3 Xrotation Yrotation Zrotation
						End Site
						{
							OFFSET 0.000000 0.000000 0.000000
						}
					}
				}
			}
		}
	}
}
MOTION
Frames: 5
Frame Time: 0.033333
0.000000 48.163952 0.000000 0.070006 -11.221602 0.011584 3.268819 11.434916 -1.926215 -4.548355 -0.116885 -0.600410 2.849235 -0.017358 -1.315733 17.801855 1.143840 -0.202274 0.079588 -0.016473 -0.187891 -5.427630 1.822726 -0.419411 16.687086 4.589025 25.411816 -23.889940 -7.909005 -80.926323 -6.472422 24.094759 -14.612914 -5.004519 -15.743423 -27.420267 18.222729 -3.907906 -20.880840 -23.739674 2.150868 84.674049 10.670092 -25.813990 5.227404 -9.801296 16.145771 30.920853 4.881188 11.801618 -1.338360 -2.828977 4.171871 -2.350044 3.447665 1.778095 -0.848268 -6.580625 -7.110303 1.655177 -0.866243 -0.981746 0.059977 -9.665947 -3.653147 -3.825850 15.950313 -1.685469 0.364309 -8.063106 11.307865 3.175860 -3.643684 1.062751 -0.004996 
0.481340 48.310673 0.273839 0.009651 -10.755163 -0.024657 2.651670 10.709219 -1.712083 -4.543886 -0.474867 -0.336125 3.278561 0.076657 -1.831533 17.149878 1.093511 -0.752544 -0.088087 -0.108529 0.024541 -4.843638 1.992159 -0.302801 16.554655 4.397899 25.343281 -23.809866 -7.209517 -80.441406 -6.174314 24.350935 -14.608905 -4.962388 -15.504952 -28.323254 18.475981 -4.464448 -20.002918 -24.489214 2.363954 83.601738 12.619308 -26.047123 4.702683 -10.017257 17.307190 31.857155 4.940058 10.938437 -1.181214 -2.385526 4.264307 -3.270895 4.320225 2.448974 -0.569393 -6.809736 -9.345469 2.221491 -0.884998 -0.550615 0.162355 -10.413562 -3.039104 -3.136600 16.744047 -2.435249 0.293315 -6.692590 11.254655 2.244927 -5.006334 1.146091 0.411799 
0.756270 48.294254 0.425723 0.009383 -11.082607 -0.034469 2.429721 10.913836 -2.169966 -4.340916 -0.532575 -0.155044 3.363333 0.237231 -1.911465 16.994535 1.029518 -0.391787 0.020331 -0.318126 0.082078 -4.829281 2.253585 -0.359483 16.120543 4.647488 25.664381 -23.737484 -7.345911 -80.364891 -6.306286 25.440903 -14.513333 -4.792428 -15.341297 -28.741127 18.288061 -4.364679 -20.108789 -24.996178 1.842900 84.239052 12.598812 -27.417217 4.411443 -8.667588 16.923965 31.640091 4.791647 11.161112 -1.465208 -2.227461 4.163998 -3.721873 4.456759 2.151955 -0.369975 -7.124438 -9.344360 2.451282 -0.732272 -1.256100 0.402324 -12.167909 -3.052777 -3.249406 18.323391 -2.405516 0.616975 -6.604084 11.013852 2.155640 -4.448446 0.901897 0.548832 
0.988187 48.283619 0.698845 0.023803 -11.357284 -0.038272 2.268135 10.831181 -2.214417 -4.104548 -0.287048 -0.291526 3.264433 -0.043346 -1.791795 16.843655 1.083975 -0.430941 0.220632 -0.005352 0.014047 -4.503603 2.409856 -0.204184 16.183399 4.545706 25.699331 -24.461035 -7.392390 -80.385773 -6.819119 26.307205 -14.331399 -4.302305 -15.127211 -28.990274 18.167561 -3.770026 -20.114407 -24.688515 1.779256 83.710899 12.039468 -26.926466 4.220038 -8.366734 15.976355 31.906029 4.451289 11.417529 -1.761650 -1.597196 4.015534 -3.629653 4.678030 2.185872 -0.510424 -7.450573 -9.521788 2.578417 -0.924456 -1.131269 0.719030 -13.493150 -2.759365 -3.403533 21.028315 -2.198351 0.980303 -6.471064 11.495578 2.225136 -5.453067 0.780628 0.733124 
1.233155 48.329895 1.021600 0.007400 -11.099114 -0.022494 2.053612 10.445307 -2.408943 -4.063010 -0.482020 -0.337401 3.310406 0.058429 -1.878486 17.031748 1.412231 -0.503711 0.018487 -0.109743 0.048309 -4.265777 2.946533 -0.423264 16.392096 4.461276 25.666199 -24.971657 -7.961845 -80.099144 -7.146028 26.680655 -14.176236 -4.400063 -14.848780 -29.862268 17.965683 -3.499408 -20.365484 -24.426554 0.984452 84.292877 12.330432 -27.314249 3.909982 -8.480599 15.671680 31.650200 4.266647 10.826336 -1.740158 -1.157568 4.437107 -4.053300 5.117080 1.980580 -0.307105 -7.778776 -9.361743 2.737667 -1.159425 -1.458179 0.861314 -15.157211 -2.377608 -3.733580 23.233610 -1.935793 0.998638 -5.947737 11.366404 2.239375 -6.351473 1.137210 0.668128 
